<?xml version="1.0" encoding="utf-8"?>
<!-- Generator: Adobe Illustrator 21.1.0, SVG Export Plug-In . SVG Version: 6.00 Build 0)  -->
<svg version="1.1" id="Layer_1" xmlns="http://www.w3.org/2000/svg" xmlns:xlink="http://www.w3.org/1999/xlink" x="0px" y="0px"
	 viewBox="0 0 820.7 301.7" style="enable-background:new 0 0 820.7 301.7;" xml:space="preserve">
<style type="text/css">
	.st0{fill:#FFFFFF;}
</style>
<g>
	<g>
		<path class="st0" d="M238.3,268.9c-6.9,11.6-16,20-27.2,25.1c-11.2,5.1-23.9,7.7-38,7.7c-16,0-30.2-3.1-42.3-9.3
			c-12.2-6.2-22.2-14.7-30.1-25.3c-7.9-10.6-13.8-22.9-17.8-36.7c-4-13.8-6-28.2-6-43.2c0-14.4,2-28.3,6-41.7
			c4-13.4,10-25.2,17.8-35.5c7.9-10.2,17.8-18.5,29.7-24.7c11.9-6.2,25.7-9.3,41.5-9.3c12.7,0,24.8,2.7,36.3,8.1
			c11.5,5.4,20.5,13.4,27.2,23.9h0.8v-76h58.9v264.4h-56v-27.4H238.3z M235.8,162.9c-1.7-8.2-4.5-15.4-8.5-21.6
			c-4-6.2-9.2-11.3-15.6-15.1c-6.4-3.9-14.4-5.8-24.1-5.8c-9.7,0-17.8,1.9-24.5,5.8c-6.6,3.9-12,9-16,15.4c-4,6.4-6.9,13.6-8.7,21.8
			c-1.8,8.2-2.7,16.7-2.7,25.5c0,8.3,1,16.6,2.9,24.9c1.9,8.3,5,15.7,9.3,22.2c4.3,6.5,9.7,11.8,16.2,15.8c6.5,4,14.3,6,23.4,6
			c9.7,0,17.8-1.9,24.3-5.8c6.5-3.9,11.7-9.1,15.6-15.6c3.9-6.5,6.6-13.9,8.3-22.2c1.7-8.3,2.5-16.9,2.5-25.7
			C238.3,179.5,237.5,171,235.8,162.9z"/>
		<path class="st0" d="M385.1,244.8c8.9,8.6,21.6,12.9,38.2,12.9c11.9,0,22.1-3,30.7-8.9c8.6-5.9,13.8-12.2,15.8-18.9h51.9
			c-8.3,25.7-21,44.1-38.2,55.2c-17.2,11.1-37.9,16.6-62.2,16.6c-16.9,0-32.1-2.7-45.6-8.1c-13.6-5.4-25-13.1-34.4-23
			c-9.4-10-16.7-21.8-21.8-35.7c-5.1-13.8-7.7-29-7.7-45.6c0-16,2.6-31,7.9-44.8c5.3-13.8,12.7-25.8,22.4-35.9
			c9.7-10.1,21.2-18.1,34.6-23.9c13.4-5.8,28.3-8.7,44.6-8.7c18.3,0,34.2,3.5,47.7,10.6c13.6,7.1,24.7,16.5,33.4,28.4
			c8.7,11.9,15,25.5,18.9,40.7c3.9,15.2,5.3,31.1,4.1,47.7H370.6C371.4,222.4,376.2,236.3,385.1,244.8z M451.7,132
			c-7.1-7.7-17.8-11.6-32.2-11.6c-9.4,0-17.2,1.6-23.4,4.8c-6.2,3.2-11.2,7.1-14.9,11.8c-3.7,4.7-6.4,9.7-7.9,14.9
			c-1.5,5.3-2.4,10-2.7,14.1h95.9C463.6,151,458.7,139.7,451.7,132z"/>
		<path class="st0" d="M543.3,147.7c0.8-13.8,4.3-25.3,10.4-34.4c6.1-9.1,13.8-16.5,23.2-22c9.4-5.5,20-9.5,31.7-11.8
			c11.8-2.3,23.6-3.5,35.5-3.5c10.8,0,21.7,0.8,32.8,2.3c11.1,1.5,21.2,4.5,30.3,8.9c9.1,4.4,16.6,10.6,22.4,18.5
			c5.8,7.9,8.7,18.3,8.7,31.3v111.6c0,9.7,0.6,19,1.7,27.8c1.1,8.9,3,15.5,5.8,19.9h-59.8c-1.1-3.3-2-6.7-2.7-10.2
			c-0.7-3.5-1.2-7-1.5-10.6c-9.4,9.7-20.5,16.5-33.2,20.3c-12.7,3.9-25.7,5.8-39,5.8c-10.2,0-19.8-1.2-28.6-3.7
			c-8.9-2.5-16.6-6.4-23.2-11.6c-6.6-5.3-11.8-11.9-15.6-19.9c-3.7-8-5.6-17.6-5.6-28.6c0-12.2,2.1-22.2,6.4-30.1
			c4.3-7.9,9.8-14.2,16.6-18.9c6.8-4.7,14.5-8.2,23.2-10.6c8.7-2.3,17.5-4.2,26.4-5.6c8.9-1.4,17.6-2.5,26.1-3.3
			c8.6-0.8,16.2-2.1,22.8-3.7c6.6-1.7,11.9-4.1,15.8-7.3c3.9-3.2,5.7-7.8,5.4-13.9c0-6.4-1-11.4-3.1-15.1c-2.1-3.7-4.8-6.6-8.3-8.7
			c-3.5-2.1-7.5-3.5-12-4.2c-4.6-0.7-9.5-1-14.7-1c-11.6,0-20.8,2.5-27.4,7.5s-10.5,13.3-11.6,24.9H543.3z M679.4,191.3
			c-2.5,2.2-5.6,3.9-9.3,5.2c-3.7,1.2-7.7,2.3-12,3.1c-4.3,0.8-8.8,1.5-13.5,2.1c-4.7,0.6-9.4,1.2-14.1,2.1
			c-4.4,0.8-8.8,1.9-13.1,3.3c-4.3,1.4-8,3.3-11.2,5.6c-3.2,2.4-5.7,5.3-7.7,8.9c-1.9,3.6-2.9,8.2-2.9,13.7c0,5.3,1,9.7,2.9,13.3
			c1.9,3.6,4.6,6.4,7.9,8.5c3.3,2.1,7.2,3.5,11.6,4.4c4.4,0.8,9,1.2,13.7,1.2c11.6,0,20.6-1.9,27-5.8c6.4-3.9,11.1-8.5,14.1-13.9
			c3-5.4,4.9-10.9,5.6-16.4c0.7-5.5,1-10,1-13.3V191.3z"/>
		<path class="st0" d="M820.7,0v296.3h-58.9V0H820.7z"/>
		<path class="st0" d="M58.9,0v296.3H0V0H58.9z"/>
	</g>
</g>
</svg>
