<?xml version="1.0" encoding="utf-8"?>
<!-- Generator: Adobe Illustrator 21.1.0, SVG Export Plug-In . SVG Version: 6.00 Build 0)  -->
<svg version="1.1" id="Layer_1" xmlns="http://www.w3.org/2000/svg" xmlns:xlink="http://www.w3.org/1999/xlink" x="0px" y="0px"
	 viewBox="0 0 350.3 403.5" style="enable-background:new 0 0 350.3 403.5;" xml:space="preserve">
<style type="text/css">
	.st0{fill:#FFFFFF;}
</style>
<g>
	<path class="st0" d="M218.3,182.2h132c-1.8,121.8-101,220.4-223,221.2v-132C176.6,270.7,216.6,231.3,218.3,182.2z"/>
	<path class="st0" d="M143.5,102V0c95.2,1.3,172.8,77.1,176.8,171.6l-102.2,0C214.3,133.3,182.5,103.2,143.5,102z"/>
	<path class="st0" d="M95.6,118.8c-9.9,9.9-15.9,22.8-17,36.6H0C1.2,120.6,15.4,88,40.1,63.3c24.9-24.9,57.7-39,92.7-40.1v78.6
		C118.8,102.8,105.7,108.7,95.6,118.8z"/>
	<path class="st0" d="M116.7,198.5v57.8C66,255.9,24.5,216.1,21.1,166h58.1C82.3,184.2,97.9,198.1,116.7,198.5z"/>
	<path class="st0" d="M144.9,182.2h29.3c-1.2,11.6-6.4,22.4-14.8,30.7c-8.7,8.7-20,13.8-32.1,14.8v-29.1c4.4-0.8,8.5-3,11.7-6.2
		C141.9,189.6,143.9,186.1,144.9,182.2z"/>
	<path class="st0" d="M129.5,159.3c-0.8,0-1.6,0.1-2.5,0.2v-20.7c0.8-0.1,1.6-0.1,2.5-0.1c9.8,0,19,3.8,25.9,10.8
		c6,6,9.6,13.8,10.5,22.1H145c-0.7-2.8-2.1-5.4-4.2-7.5C137.7,161,133.7,159.3,129.5,159.3z"/>
</g>
</svg>
